<svg xmlns="http://www.w3.org/2000/svg"
     xmlns:xlink="http://www.w3.org/1999/xlink"
     style="display:none">
<symbol id="icon-one-star" viewBox="0 0 1024 1024">
	<path fill="currentColor" d="M680.89,649.87L991,556.4c43.99-13.26,43.99-75.55,0-88.81l-310.11-93.46c-14.89-4.49-26.54-16.14-31.02-31.02
	L556.41,33C543.15-11,480.85-11,467.59,33l-93.46,310.11c-4.49,14.89-16.14,26.54-31.02,31.02L33,467.59
	c-43.99,13.26-44,75.55,0,88.81l310.11,93.47c14.89,4.49,26.54,16.14,31.02,31.02L467.59,991c13.26,43.99,75.55,43.99,88.81,0
	l93.46-310.11C654.36,666.01,666,654.36,680.89,649.87z"/>
</symbol>
<symbol id="icon-two-star" viewBox="0 0 1024 1024">
	<path fill="currentColor" d="M291.74,571.07l132.87-40.05c18.85-5.68,18.85-32.37,0-38.05l-132.87-40.05c-6.38-1.92-11.37-6.91-13.29-13.29
	L238.4,306.77c-5.68-18.85-32.37-18.85-38.05,0L160.3,439.64c-1.92,6.38-6.91,11.37-13.29,13.29L14.14,492.97
	c-18.85,5.68-18.85,32.37,0,38.05l132.87,40.05c6.38,1.92,11.37,6.91,13.29,13.29l40.05,132.87c5.68,18.85,32.37,18.85,38.05,0
	l40.05-132.87C280.37,577.99,285.36,573,291.74,571.07z"/>
    <path fill="currentColor" d="M876.99,571.07l132.87-40.05c18.85-5.68,18.85-32.37,0-38.05l-132.87-40.05c-6.38-1.92-11.37-6.91-13.29-13.29
	l-40.05-132.87c-5.68-18.85-32.37-18.85-38.05,0l-40.05,132.87c-1.92,6.38-6.91,11.37-13.29,13.29l-132.87,40.04
	c-18.85,5.68-18.85,32.37,0,38.05l132.87,40.05c6.38,1.92,11.37,6.91,13.29,13.29l40.05,132.87c5.68,18.85,32.37,18.85,38.05,0
	l40.05-132.87C865.62,577.99,870.61,573,876.99,571.07z"/>
</symbol>
<symbol id="icon-tree-star" viewBox="0 0 1024 1024">
	<path fill="currentColor" d="M451.96,337.17l41,136.03c5.82,19.3,33.14,19.3,38.96,0l41-136.03c1.97-6.53,7.08-11.64,13.61-13.61l136.03-41
	c19.3-5.82,19.3-33.14,0-38.96l-136.03-41c-6.53-1.97-11.64-7.08-13.61-13.61L531.91,52.98c-5.82-19.3-33.14-19.3-38.96,0
	l-41,136.03c-1.97,6.53-7.08,11.64-13.61,13.61l-136.03,41c-19.3,5.82-19.3,33.14,0,38.96l136.03,41
	C444.88,325.53,449.99,330.64,451.96,337.17z"/>
    <path fill="currentColor" d="M164.11,834.99l41,136.03c5.82,19.3,33.14,19.3,38.96,0l41-136.03c1.97-6.53,7.08-11.64,13.61-13.61l136.03-41
	c19.3-5.82,19.3-33.14,0-38.96l-136.03-41c-6.53-1.97-11.64-7.08-13.61-13.61L244.06,550.8c-5.82-19.3-33.14-19.3-38.96,0
	l-41,136.03c-1.97,6.53-7.08,11.64-13.61,13.61l-136.03,41c-19.3,5.82-19.3,33.14,0,38.96l136.03,41
	C157.03,823.35,162.14,828.46,164.11,834.99z"/>
    <path fill="currentColor" d="M738.94,834.99l41,136.03c5.82,19.3,33.14,19.3,38.96,0l41-136.03c1.97-6.53,7.08-11.64,13.61-13.61l136.03-41
	c19.3-5.82,19.3-33.14,0-38.96l-136.03-41c-6.53-1.97-11.64-7.08-13.61-13.61L818.9,550.8c-5.82-19.3-33.14-19.3-38.96,0l-41,136.03
	c-1.97,6.53-7.08,11.64-13.61,13.61l-136.03,41c-19.3,5.82-19.3,33.14,0,38.96l136.03,41C731.86,823.35,736.97,828.46,738.94,834.99
	z"/>
</symbol>
</svg>
