<?xml version="1.0" encoding="UTF-8" standalone="no"?><!DOCTYPE svg PUBLIC "-//W3C//DTD SVG 1.1//EN" "http://www.w3.org/Graphics/SVG/1.1/DTD/svg11.dtd"><svg width="100%" height="100%" viewBox="0 0 4267 1424" version="1.1" xmlns="http://www.w3.org/2000/svg" xmlns:xlink="http://www.w3.org/1999/xlink" xml:space="preserve" xmlns:serif="http://www.serif.com/" style="fill-rule:evenodd;clip-rule:evenodd;stroke-linejoin:round;stroke-miterlimit:2;"><g><g><path d="M724.625,920.542c0,121.918 -99.208,221.128 -221.125,221.128c-121.917,0 -221.125,-99.21 -221.125,-221.128l0,-919.584l-282.375,0l0,919.584c0,277.628 225.875,503.458 503.458,503.458c277.625,0 503.462,-225.88 503.462,-503.458l-0,-919.584l-282.337,0l-0,919.584l0.042,0Z" style="fill:#fff;fill-rule:nonzero;"/><path d="M3763.21,0.958c-277.62,-0 -503.46,225.834 -503.46,503.459l0,919.543l282.34,0l0,-173.13l442.25,0l0,173.17l282.33,0l0,-919.542c0,-277.625 -225.88,-503.5 -503.46,-503.5Zm-221.12,967.542l0,-464.042c0,-121.916 99.2,-221.125 221.12,-221.125c121.92,0 221.13,99.209 221.13,221.125l0,464.042l-442.25,0Z" style="fill:#fff;fill-rule:nonzero;"/><path d="M2495.62,0c-142.13,0 -270.67,59.208 -362.29,154.25c-91.63,-95.042 -220.17,-154.25 -362.29,-154.25c-277.63,0 -503.46,225.833 -503.46,503.458l0,919.582l282.33,0l0,-919.582c0,-121.916 99.21,-221.125 221.13,-221.125c121.91,0 221.12,99.209 221.12,221.125l0,919.582l282.33,0l0,-919.582c0,-121.916 99.21,-221.125 221.13,-221.125c121.92,0 221.12,99.209 221.12,221.125l0,919.582l282.34,0l0,-919.582c0,-277.583 -225.84,-503.458 -503.46,-503.458Z" style="fill:#fff;fill-rule:nonzero;"/></g></g></svg>